<?xml version="1.0" ?><svg id="Capa_1" style="enable-background:new 0 0 100 100;" version="1.1" viewBox="0 0 100 100" xml:space="preserve" xmlns="http://www.w3.org/2000/svg" xmlns:xlink="http://www.w3.org/1999/xlink"><path d="M61,81H21c-0.55,0-1-0.45-1-1V20c0-0.55,0.45-1,1-1h40c0.55,0,1,0.45,1,1s-0.45,1-1,1H22v58h39c0.55,0,1,0.45,1,1  S61.55,81,61,81z"/><path d="M64.27,65.73c-0.26,0-0.51-0.1-0.71-0.29c-0.39-0.39-0.39-1.02,0-1.41L77.59,50L63.56,35.98c-0.39-0.39-0.39-1.02,0-1.41  s1.02-0.39,1.41,0L79.7,49.3c0.19,0.18,0.3,0.44,0.3,0.7s-0.11,0.52-0.29,0.71L64.98,65.44C64.78,65.63,64.52,65.73,64.27,65.73z"/><path d="M39,51c-0.55,0-1-0.45-1-1s0.45-1,1-1h40c0.55,0,1,0.45,1,1s-0.45,1-1,1H39z"/></svg>